/* XPM */
static char * floor_xpm[] = {
"64 64 71 1",
" 	c #8B9150",
".	c #8A9050",
"+	c #8B914F",
"@	c #8C914F",
"#	c #8D914F",
"$	c #858E50",
"%	c #6D8652",
"&	c #5B7F54",
"*	c #658353",
"=	c #7E8C51",
"-	c #858F50",
";	c #6E8652",
">	c #648253",
",	c #7D8C51",
"'	c #8D924F",
")	c #878F50",
"!	c #848E50",
"~	c #8A9150",
"{	c #868F50",
"]	c #899050",
"^	c #728752",
"/	c #748852",
"(	c #828D50",
"_	c #7F8C51",
":	c #728852",
"<	c #6F8652",
"[	c #798A51",
"}	c #718752",
"|	c #7A8A51",
"1	c #889050",
"2	c #758951",
"3	c #618153",
"4	c #7B8B51",
"5	c #768951",
"6	c #638253",
"7	c #708752",
"8	c #6C8552",
"9	c #5E8054",
"0	c #838E50",
"a	c #788A51",
"b	c #5A7E54",
"c	c #658253",
"d	c #738852",
"e	c #5D8054",
"f	c #778951",
"g	c #5A7F54",
"h	c #808D50",
"i	c #678353",
"j	c #577E54",
"k	c #698453",
"l	c #608153",
"m	c #668353",
"n	c #5F8054",
"o	c #818D50",
"p	c #6B8552",
"q	c #828E50",
"r	c #688453",
"s	c #6A8552",
"t	c #6A8453",
"u	c #7D8B51",
"v	c #7C8B51",
"w	c #808C51",
"x	c #888F50",
"y	c #628153",
"z	c #5C7F54",
"A	c #597E54",
"B	c #758852",
"C	c #587E54",
"D	c #628253",
"E	c #788951",
"F	c #FFFFFF",
" ..++@##$%&*=+@                               ..++@##-;&>,+'@@+.",
" ++.)!-.!%&*=+@+++.~                          ++.)!$.$;&>,.)!{]+",
" +@]=^/(!;&*=@'@@+..                          +@]_:/($<&*={[}|{@",
" +@123>4!<&*=+.1].++                          +@]536|!7&*=(89%0#",
" +#1:&9a0;bc=),5,)++                          +#1d&ef!<gc=hijk(#",
" +@1del[!<&m_(;6}$@+                          +@1/ena!7&*=okbpq#",
" +@][rs,-2m<(q<*^$@+                          +@]|ktu-5m;o0}md!@",
" ++.0vu$1(4_))_|w1++                          ++.0vu$1(4=))w4h1+",
"  +...............+                            +...............+",
" ..++@@+++@@++@@@+..                          ..++@@+++@@++@@@+.",
"  ~ ++++ +++  +++ ~                            ~ ++++ +++  +++ ~",
"                                                                ",
"                                                                ",
"                                                                ",
"                                                                ",
"                                                                ",
"                                                                ",
"                                                                ",
"                                                                ",
"                                                                ",
"                                                                ",
"                                                                ",
"                                                                ",
"                                                                ",
"                                                                ",
"                                                                ",
"                                                                ",
"                                                                ",
"                                                                ",
"                                                                ",
"                                                                ",
"                                                                ",
"                                                                ",
"                                                                ",
"                                                                ",
"                                                                ",
"                                                                ",
"                                                                ",
"                                                                ",
"                                                                ",
"                                                                ",
"                                                                ",
"                                                                ",
"                                                                ",
"                                                                ",
"                                                                ",
"      ~.+++++~.                                                 ",
"      ..+@@@+..                                                 ",
"      ++.]]].++                                                 ",
" ..++@@@1_[v{+@@++..                               ..++@@+..    ",
" ~.+++@@{d>8h+@+++..                               ..+++++..    ",
" ++.{o(1!%gc=]!h!]++                          ~.+++++]!h(x+++++.",
" +@]v%<h!;g*=!/p5{@+                          ..++@@@)ap}(+#@@+.",
" +@1/ny|!<&m_okz80@+                           +.1{).-<z*=.]{).+",
" +#1:&9a0;A*_wmjk0@+                          +@]_dB(!%CDu{|}|{@",
" +@1/93|!7zi_hk&80@+                          +@]E>*4!7zm=(;3<!@",
" +@]48;_{ap^0!ds2{@+                          +@]4p8={[p^(!dk/$@",
" ++.-ho)]!_(11q_0]++                          ++.-_h{]!_(x1(_0]+",
" ~.+++++++++++++++..                          ~. ++++++++++++++.",
" ..++@@+++@@+++@++..                          ..++@@+++@@+++@++.",
"                                                                ",
"                                                                ",
"                                                                ",
"                                                                "};
