/* XPM */
static char * wall_xpm[] = {
"64 64 265 2",
"  	c #2F2F3B",
". 	c #484750",
"+ 	c #807C7F",
"@ 	c #B7B0AD",
"# 	c #C5BEB9",
"$ 	c #C2BAB6",
"% 	c #C0B9B5",
"& 	c #C1B9B5",
"* 	c #C2BBB7",
"= 	c #BEB7B3",
"- 	c #ABA6A3",
"; 	c #989493",
"> 	c #9B9796",
", 	c #B0AAA8",
"' 	c #C2BBB6",
") 	c #C1BAB6",
"! 	c #BCB5B2",
"~ 	c #A8A2A0",
"{ 	c #979292",
"] 	c #9E9998",
"^ 	c #B4ADAA",
"/ 	c #C4BCB8",
"( 	c #C3BCB8",
"_ 	c #A6A09F",
": 	c #666469",
"< 	c #44434D",
"[ 	c #6F6C71",
"} 	c #AAA4A3",
"| 	c #C4BDB8",
"1 	c #2F303B",
"2 	c #47464F",
"3 	c #7C787B",
"4 	c #AFA9A6",
"5 	c #BDB6B2",
"6 	c #B9B2AF",
"7 	c #B8B1AE",
"8 	c #B8B2AE",
"9 	c #B9B3AF",
"0 	c #B6AFAC",
"a 	c #A7A19F",
"b 	c #999594",
"c 	c #ABA5A3",
"d 	c #B7B1AD",
"e 	c #B4AEAB",
"f 	c #A49E9D",
"g 	c #959191",
"h 	c #ADA7A5",
"i 	c #BBB4B0",
"j 	c #9F9A99",
"k 	c #636167",
"l 	c #44434C",
"m 	c #30303C",
"n 	c #44444D",
"o 	c #726F73",
"p 	c #A9A3A1",
"q 	c #A5A09E",
"r 	c #A49F9D",
"s 	c #A39E9C",
"t 	c #9B9695",
"u 	c #928E8E",
"v 	c #948F8F",
"w 	c #9D9897",
"x 	c #A59F9E",
"y 	c #A29D9B",
"z 	c #928E8D",
"A 	c #959090",
"B 	c #A6A09E",
"C 	c #A7A2A0",
"D 	c #908C8C",
"E 	c #5C5A60",
"F 	c #43424C",
"G 	c #706D71",
"H 	c #31313C",
"I 	c #42414B",
"J 	c #68666B",
"K 	c #8D898A",
"L 	c #989393",
"M 	c #969291",
"N 	c #969191",
"O 	c #959190",
"P 	c #949090",
"Q 	c #94908F",
"R 	c #938F8F",
"S 	c #979392",
"T 	c #817E80",
"U 	c #55535A",
"V 	c #706D72",
"W 	c #41414A",
"X 	c #656368",
"Y 	c #898687",
"Z 	c #A19C9B",
"` 	c #A19C9A",
" .	c #9B9696",
"..	c #928D8D",
"+.	c #999493",
"@.	c #A09B9A",
"#.	c #A29D9C",
"$.	c #918D8D",
"%.	c #7D7A7C",
"&.	c #525158",
"*.	c #C7BFBA",
"=.	c #8C8888",
"-.	c #B0AAA7",
";.	c #AAA4A2",
">.	c #B7B1AE",
",.	c #B6B0AD",
"'.	c #B6B0AC",
").	c #AFA9A7",
"!.	c #B5AFAC",
"~.	c #ACA6A4",
"{.	c #7E7B7D",
"].	c #716E72",
"^.	c #8C8889",
"/.	c #A6A19F",
"(.	c #C0B8B4",
"_.	c #BFB8B4",
":.	c #B1ABA8",
"<.	c #9C9796",
"[.	c #C1BAB5",
"}.	c #C0B9B4",
"|.	c #B2ACA9",
"1.	c #7F7B7E",
"2.	c #535259",
"3.	c #40404A",
"4.	c #7F7C7E",
"5.	c #54535A",
"6.	c #3E3D47",
"7.	c #535159",
"8.	c #737074",
"9.	c #807D7F",
"0.	c #BCB5B1",
"a.	c #A29C9B",
"b.	c #9D9997",
"c.	c #55545B",
"d.	c #3C3C46",
"e.	c #4C4B53",
"f.	c #656369",
"g.	c #706E72",
"h.	c #3F3E48",
"i.	c #5A585F",
"j.	c #817D80",
"k.	c #928D8E",
"l.	c #7F7B7D",
"m.	c #6C6A6E",
"n.	c #A39D9C",
"o.	c #42424B",
"p.	c #C7C0BB",
"q.	c #AAA5A2",
"r.	c #B3ACA9",
"s.	c #A9A4A2",
"t.	c #BBB5B1",
"u.	c #8B8788",
"v.	c #A09B99",
"w.	c #AEA8A6",
"x.	c #B2ABA9",
"y.	c #B1AAA8",
"z.	c #716D72",
"A.	c #8A8687",
"B.	c #9A9595",
"C.	c #9C9897",
"D.	c #9A9594",
"E.	c #6A686C",
"F.	c #989392",
"G.	c #858183",
"H.	c #56555C",
"I.	c #C5BDB9",
"J.	c #45444E",
"K.	c #757275",
"L.	c #A8A3A1",
"M.	c #A9A4A1",
"N.	c #AAA5A3",
"O.	c #938E8E",
"P.	c #969292",
"Q.	c #ADA7A4",
"R.	c #5E5C62",
"S.	c #43434C",
"T.	c #7E7A7D",
"U.	c #BDB6B3",
"V.	c #BAB3AF",
"W.	c #9A9695",
"X.	c #ADA8A5",
"Y.	c #BBB4B1",
"Z.	c #656268",
"`.	c #6D6A6F",
" +	c #68656A",
".+	c #5C5A61",
"++	c #888486",
"@+	c #7F7C7F",
"#+	c #BCB6B2",
"$+	c #4B4A53",
"%+	c #747175",
"&+	c #BAB4B0",
"*+	c #68656B",
"=+	c #3F3F48",
"-+	c #4E4D55",
";+	c #7A777A",
">+	c #67646A",
",+	c #615F65",
"'+	c #908C8D",
")+	c #A49F9E",
"!+	c #666369",
"~+	c #6E6B70",
"{+	c #A9A3A2",
"]+	c #C3BCB7",
"^+	c #C4BDB9",
"/+	c #B3ADAA",
"(+	c #C3BBB7",
"_+	c #7B787B",
":+	c #B5AEAB",
"<+	c #999494",
"[+	c #ACA7A4",
"}+	c #9E9999",
"|+	c #636066",
"1+	c #8E8A8B",
"2+	c #5B5960",
"3+	c #8D8989",
"4+	c #817D7F",
"5+	c #716E73",
"6+	c #B5AFAB",
"7+	c #B9B2AE",
"8+	c #6B686D",
"9+	c #403F49",
"0+	c #626065",
"a+	c #8F8B8B",
"b+	c #54525A",
"c+	c #848082",
"d+	c #5B5A60",
"e+	c #838081",
"f+	c #5B595F",
"g+	c #827E80",
"h+	c #3D3D47",
"i+	c #525159",
"j+	c #4A4952",
"k+	c #626066",
"l+	c #6C6A6F",
"m+	c #55535B",
"n+	c #4F4E56",
"o+	c #787579",
"p+	c #625F65",
"q+	c #8F8A8B",
"r+	c #B3ADA9",
"s+	c #AEA9A6",
"t+	c #B0A9A7",
"u+	c #AEA8A5",
"v+	c #43424B",
"w+	c #868283",
"x+	c #57555C",
"y+	c #ACA5A4",
"z+	c #30303B",
"A+	c #45454E",
"B+	c #767276",
"C+	c #ACA6A3",
"D+	c #938F8E",
"E+	c #5E5C63",
"F+	c #AFA8A6",
"G+	c #C9C2BC",
"H+	c #BAB3B0",
"I+	c #525058",
"J+	c #827E81",
"K+	c #6A676C",
"L+	c #393843",
"M+	c #45444D",
"N+	c #494851",
"O+	c #3A3A44",
"P+	c #2D2E39",
"  . + @ # $ % % % % % % % % % % % % % % & * = - ; > , % ' % % % ) ' ! ~ { ] ^ & ' % % % % % % % % % % % % % % % / ( _ : < [ } | ",
"1 2 3 4 5 6 7 7 7 7 7 7 7 7 7 7 7 7 7 7 8 9 0 a { b c d 6 7 7 7 8 9 e f g > h 7 6 7 7 7 7 7 7 7 7 7 7 7 7 7 7 7 i i j k l [ } | ",
"m n o ] p q r r r r r r r r r r r r r q q q s t u v w f x r r r r x y b z A ] r B q q r r r r r r r r r r r r r C ~ D E F G } | ",
"H I J K L M N N N N N N N N N N N N O P Q O g P R R A N N N N N N N g P R R O g P Q P g N N N N N N N N N N N N S M T U I V c | ",
"H W X Y b ] Z Z ` ` ` ` ` ` ` ` Z `  .R ..+.@.#.#.y Z ` ` ` ` ` ` ` ` y #.#.y ] g $.N ] Z Z ` ` ` ` ` ` ` ` Z @.w O %.&.I o h *.",
"H W X =.y -.@ @ 0 0 0 0 0 0 0 0 d 0 ;.b N x ^ >.,.'.'.0 0 0 0 0 0 0 0 '.'.@ @ ).] P j -.@ @ 0 0 0 0 0 0 0 '.d !.~.t {.&.I ].c # ",
"H W X ^./.7 & & (.(.(.(.(.(.(.(.) _.:.<.L ;.5 ) % (.(.(.(.(.(.(.(.(.(.(.(.& [.d y N s 7 [.% (.(.(.(.(.(.(.}.) _.|.] 1.2.3.: { ~.",
"H W X ^./.7 & & (.(.(.(.(.(.(.}.) _.:.<.L ;.5 ) % (.(.(.(.(.(.(.(.(.(.(.(.& [.d y N s 7 [.% (.(.(.(.(.(.(.}.) _.|.] 4.5.6.7.8.9.",
"H W X ^._ d (.(._._._._._._._._.% = -.> S ;.0.% _._._._._._._._._._._._._._.}.@ a.N #.d % _._._._._._._._._.% = |.b.4.c.d.e.f.g.",
"H W X ^._ d (.(._._._._._._._._.% = -.> S ;.0.% _._._._._._._._._._._._._._.}.@ a.N #.d % _._._._._._._._._.% = |.b.4.5.h.i.j.k.",
"H W X ^._ d (.(._._._._._._._._.% = -.> S ;.0.% _._._._._._._._._._._._._._.}.@ a.N #.d % _._._._._._._._._.% = |.b.l.7.W m.n.i ",
"H W X ^._ d (.(._._._._._._._._.% = -.> S ;.0.% _._._._._._._._._._._._._._.}.@ a.N #.d % _._._._._._._._._.% = |.b.{.&.o.o h p.",
"H W X ^._ d (.(._._._._._._._._.% = -.> S ;.0.% _._._._._._._._._._._._._._.}.@ a.N #.d % _._._._._._._._._.% = |.b.{.&.I ].~.# ",
"H W X ^._ d (.(._._._._._._._._.% = -.> S ;.0.% _._._._._._._._._._._._._._.}.@ a.N #.d % _._._._._._._._._.% = |.b.{.&.I V c | ",
"H W X ^._ d (.(._._._._._._._._.% = -.> S ;.0.% _._._._._._._._._._._._._._.}.@ a.N #.d % _._._._._._._._._.% = |.b.{.&.I V c | ",
"H W X ^._ d (.}._._._._._._._._.% = -.> S ;.0.% _._._._._._._._._._._._._.(.}.@ a.N #.d % _._._._._._._._._.% = |.b.{.&.I V c | ",
"H W X ^./.8 ) ) % % % % % % % % $ }.:.<.L q.5 ' % % % % % % % % % % % % % ) ) 7 y N s 8 ) ) % % % % % % % % $ _.r.] {.&.I V c | ",
"H W X ^.B @ _._.= = = = = = = = }.= -.> S s.t.% = = = = = = = = = = = = = _._.,.Z N #.@ _._.= = = = = = = = % 5 :.w {.&.I V c | ",
"H W X u.v.c :.:.-.-.-.-.-.-.-.-.:.-._ S P Z w.x.:.:., -.-.-.-.-.-.-.-.y.:.:.:.q.<.R <.c :.:.-.-.-.-.-.-.-.-.:.).~ b {.&.I z.c | ",
"H W X A.S B.<.<.> > > > > > > > <.> L u $.N t C.w C.<.> > > > > > > <.<.C.w <.b Q $.Q b <.<.> > > > > > > > <. .D.P {.7.I z.c | ",
"H o.E.$.t ; S S S S S S S S S S S S S F.F.L S P ..u O S L S S S F.L { Q $.u N F.L F.F.S S S S S S S S S S S S S D.D.G.H.o.z.c I.",
"m J.K.s 4 c ;.;.;.;.;.;.;.;.;.;.;.;.;.c c c L.] R O ` M.N.;.;.;.;.c C <.O.P.n.;.- c q.;.;.;.;.;.;.;.;.;.;.;.;.;.Q.h A R.S.].h p.",
"  . T.r.[.5 0.0.0.0.0.0.0.0.0.0.0.0.0.0.0.U.V.p S W.X.Y.5 0.0.0.! 5 7 _ M w -.0.5 0.0.0.0.0.0.0.0.0.0.0.0.0.0.0._._.#.Z.l `./._.",
"  . + @ # ) % % % % % % % % % % % % % % % ' = - ;  ., (.' % % % [.' 0.~ { ] ^ % $ % % % % % % % % % % % % % % % ( ( /. +W .+++B.",
"  . @+!.| % _._._._._._._._._._._._._._._.& #+c L t ).= % _._._._.% i C { b.r._.% _._._._._._._._._._._._._._._.' ' _ J h.$+J %+",
"  . 1.!.( }._._._._._._._._._._._._._._._.% 0.q.L t ).= % _._._._.% &+C { w |._.% _._._._._._._._._._._._._._._.$ $ q *+=+-+`.;+",
"  . 1.!.( }._._._._._._._._._._._._._._._.% 0.q.L t ).= % _._._._.% &+C { w |._.% _._._._._._._._._._._._._._._.$ $ x >+I ,+'+)+",
"  . 1.!.( }._._._._._._._._._._._._._._._.% 0.q.L t ).= % _._._._.% &+C { w |._.% _._._._._._._._._._._._._._._.$ $ x !+l ~+{+]+",
"  . 1.!.( }._._._._._._._._._._._._._._._.% 0.q.L t ).= % _._._._.% &+C { w |._.% _._._._._._._._._._._._._._._.$ $ x f.< V h p.",
"  . 1.!.( }._._._._._._._._._._._._._._._.% 0.q.L t ).= % _._._._.% &+C { w |._.% _._._._._._._._._._._._._._._.$ $ x f.< [ } | ",
"  . 1.!.( }._._._._._._._._._._._._._._._.% 0.q.L t ).= % _._._._.% &+C { w |._.% _._._._._._._._._._._._._._._.$ $ x f.< [ } | ",
"  . 1.!.( }._._._._._._._._._._._._._._._.% 0.q.L t ).= % _._._._.% &+C { w |._.% _._._._._._._._._._._._._._._.$ $ x f.< [ } | ",
"  . 1.!.( }._._._._._._._._._._._._._._._.% 0.q.L t ).= % _._._._.% &+C { w |._.% _._._._._._._._._._._._._._._.$ $ x f.< [ } | ",
"  . 1.!.( }._._._._._._._._._._._._._._._.% 0.q.L t ).= % _._._._.% &+C { w |._.% _._._._._._._._._._._._._._._.$ $ x f.< [ } | ",
"  . 1.!.( }._._._._._._._._._._._._._._._.% 0.q.L t ).= % _._._._.% &+C { w |._.% _._._._._._._._._._._._._._._.$ $ x f.< [ } | ",
"  . 1.!.( }._._._._._._._._._._._._._._._.% 0.q.L t ).= % _._._._.% &+C { w |._.% _._._._._._._._._._._._._._._.$ $ x f.< [ } | ",
"  . 1.!.( }._._._._._._._._._._._._._._._.% 0.q.L t ).= % _._._._.% &+C { w |._.% _._._._._._._._._._._._._._._.$ $ x f.< [ } | ",
"  . + 0 ^+[._._._._._._._._._._._._._._.% ) 5 c ; t -._.) (._._.% ) t.~ { ] /+% ) _._._._._._._._._._._._._._._.(+(+q !+< [ } | ",
"  . + ,.I.[.}.}.}.}.}.}.}.}.}.}.}.}.}.}.% ) 5 c ; t -._.) % }.}.% ) 0.~ { ] /+% ) }.}.}.}.}.}.}.}.}.}.}.}.}.}.}.]+(+_ !+< [ } | ",
"1 2 _+w.t.7 @ @ @ @ @ @ @ @ @ @ @ @ @ @ d 8 :+_ M <+;.'.7 @ @ @ @ 7 /+s O t [+@ 7 @ @ @ @ @ @ @ @ @ @ @ @ @ @ @ V.V.}+|+l [ } | ",
"m < ].<.a s a.a.a.a.a.a.a.a.a.a.a.a.y s s s ` b u R > Z #.a.a.a.y #.@.; $.Q w y s s n.y a.a.a.a.a.a.a.a.a.a.a.a.x q 1+2+F G } | ",
"H I  +3+S M N N N N N N N N N N N N A v R P g A v Q O N N N N N N N g P v Q O O Q R Q O N N N N N N N N N N N N S N 4+5.I V c | ",
"H W X A.D.v.s s #.#.#.#.#.#.#.#.s y <.R u b Z r r f s #.#.#.#.#.#.#.#.s r r s j M $.P.j s s #.#.#.#.#.#.#.#.s y ] g %.&.I 5+~.# ",
"H W X ^.s :.7 7 d d d d d d d d 8 @ c b M q 6+6 7 d d d d d d d d d d d >.8 8 , j A j :.8 7 d d d d d d d d 7+,.Q.> {.&.I z.c | ",
"H W X ^./.8 [.[.% % % % % % % % ) _.:.<.L q.5 ) % % % % % % % % % % % % % [.) 7 y N s 8 ) [.% % % % % % % % ) _.|.] l.7.W 8+@.d ",
"H W X ^./.7 % % _._._._._._._._.) _.:.<.L ;.5 ) % _._._._._._._._._._._._.% & d y N s 7 [.% _._._._._._._._.) _.|.] 4.2.9+0+a+#.",
"H W X ^._ d (.(._._._._._._._._.% = -.> S ;.0.% _._._._._._._._._._._._._._.}.@ a.N #.d % _._._._._._._._._.% = |.b.4.b+h.E c+O ",
"H W X ^._ d (.(._._._._._._._._.% = -.> S ;.0.% _._._._._._._._._._._._._._.}.@ a.N #.d % _._._._._._._._._.% = |.b.4.5.h.d+e+P ",
"H W X ^._ d (.(._._._._._._._._.% = -.> S ;.0.% _._._._._._._._._._._._._._.}.@ a.N #.d % _._._._._._._._._.% = |.b.4.5.h.f+g+u ",
"H W X ^._ d (.(._._._._._._._._.% = -.> S ;.0.% _._._._._._._._._._._._._._.}.@ a.N #.d % _._._._._._._._._.% = |.b.4.U h+i+o + ",
"H W X ^._ d (.(._._._._._._._._.% = -.> S ;.0.% _._._._._._._._._._._._._._.}.@ a.N #.d % _._._._._._._._._.% = |.b.4.c.d.j+k+l+",
"H W X ^._ d (.(._._._._._._._._.% = -.> S ;.0.% _._._._._._._._._._._._._._.}.@ a.N #.d % _._._._._._._._._.% = |.b.4.m+h+n+l+o+",
"H W X ^._ d (.(._._._._._._._._.% = -.> S ;.0.% _._._._._._._._._._._._._._.}.@ a.N #.d % _._._._._._._._._.% = |.b.4.2.9+p+q+#.",
"H W X ^._ d }.}._._._._._._._._.% = -.> S ;.0.% _._._._._._._._._._._._._.(.% @ a.N #.d % _._._._._._._._._.% = |.b.{.&.I [ p ' ",
"H W X ^./.8 ) ) % % % % % % % % $ % :.<.L q.5 ' % % % % % % % % % % % % % ) ) 7 y N s 7+) ) % % % % % % % % ' _.r+] {.&.o.o h p.",
"H W X ^.q ,._._.= = = = = = = = _.5 ). .S M.Y._.= = = = = = = = = = = = = _._.0 Z N y ,._._.= = = = = = = = _.5 :.w {.&.I ].c | ",
"H W X u.j ;.4 ).s+s+s+s+s+s+s+s+).w.x { P @.Q.-.-.).4 s+w.s+s+s+s+w.4 4 ).-.t+p t R > ;.).4 s+s+s+s+s+s+s+4 -.u+/.+.{.&.I z.c | ",
"H W X A.S b W.W.W.W.W.W.W.W.W.W.t W.{ u $.g D.t  .t t W.W.W.W.W.W.W.W.t  .> t ; R $.v +.t W.W.W.W.W.W.W.W.W.t B.<+Q {.2.I z.c | ",
"H v+8+u <.b ; ; ; ; ; ; ; ; ; ; ; ; ; +.+.<+L A $.u N ; +.; ; ; ; +.F.P $.u M ; <++.+.; ; ; ; ; ; ; ; ; ; ; ; ; t t w+x+o.].y+# ",
"z+A+B+r -.[+c c c c c c c c c c c c ~.~.[+h ;.j v g y c ~.- c c C+~.p w D+S r C+h [+~.- c c c c c c c c c c c - w.4 N E+l o F+G+",
"  . T./+) = #+#+#+#+#+#+#+#+#+#+#+#+#+#+5 = H+M.F.W.u+0.= 5 #+#+5 = 6 /.M w :.5 = #+#+#+#+#+#+#+#+#+#+#+#+#+#+#+}._.s X S.8+#.H+",
"  . + @ # ) % % % % % % % % % % % % % % % ' = - ;  .-._.' % % % [.' 0.~ { ] ^ % $ % % % % % % % % % % % % % % % ( ]+a J 9+I+%+J+",
"  . 4.!./ % _._._._._._._._._._._._._._._.% ! c L t ).= % _._._._.% i C { b.r._.% _._._._._._._._._._._._._._._.' ' _ K+d.L+M+N+",
"  . 1.!.( }._._._._._._._._._._._._._._._.% 0.q.L t ).= % _._._._.% &+C { w |._.% _._._._._._._._._._._._._._._.$ $ _ 8+O+P+    "};
